<svg width="20" height="20" viewBox="0 0 20 20" fill="none" xmlns="http://www.w3.org/2000/svg">
<path d="M9.7044 1.23086C9.79371 1.11182 9.84657 0.969443 9.85658 0.820972C9.86659 0.672501 9.83332 0.524314 9.7608 0.39437C9.68829 0.264427 9.57964 0.158307 9.44802 0.0888722C9.31641 0.0194375 9.16748 -0.0103308 9.01928 0.00317535C3.46651 0.509837 0.367055 4.87698 0.0306481 9.34155C-0.305759 13.8143 2.11986 18.5466 7.67263 19.7681C13.5044 21.0502 19.4387 16.8584 19.9966 10.9005C20.0105 10.753 19.9815 10.6046 19.9131 10.4732C19.8447 10.3418 19.7398 10.2329 19.611 10.1597C19.4822 10.0865 19.335 10.052 19.187 10.0604C19.0391 10.0688 18.8968 10.1198 18.7771 10.2072C15.8674 12.3292 12.5413 11.5569 10.4326 9.46462C8.32595 7.37336 7.56083 4.09134 9.7044 1.23086Z" fill="white"/>
</svg>
