<svg width="40" height="40" viewBox="0 0 40 40" fill="none" xmlns="http://www.w3.org/2000/svg">
<circle cx="20" cy="20" r="20" fill="#00D712"/>
<path d="M17.3423 25.1591V24.8636C17.3499 23.4924 17.4787 22.4015 17.7287 21.5909C17.9863 20.7803 18.3499 20.1288 18.8196 19.6364C19.2893 19.1364 19.8613 18.678 20.5355 18.2614C20.9976 17.9735 21.4105 17.6591 21.7741 17.3182C22.1454 16.9697 22.437 16.5833 22.6491 16.1591C22.8613 15.7273 22.9673 15.2462 22.9673 14.7159C22.9673 14.1174 22.8272 13.5985 22.5469 13.1591C22.2666 12.7197 21.8878 12.3788 21.4105 12.1364C20.9408 11.8939 20.4143 11.7727 19.831 11.7727C19.2931 11.7727 18.7817 11.8902 18.2969 12.125C17.8196 12.3523 17.4219 12.7008 17.1037 13.1705C16.7931 13.6326 16.6188 14.2197 16.581 14.9318H12.5355C12.5734 13.4924 12.9219 12.2879 13.581 11.3182C14.2476 10.3485 15.1264 9.62121 16.2173 9.13636C17.3158 8.65151 18.5279 8.40909 19.8537 8.40909C21.3007 8.40909 22.5734 8.66288 23.6719 9.17045C24.7779 9.67803 25.6378 10.4015 26.2514 11.3409C26.8726 12.2727 27.1832 13.3788 27.1832 14.6591C27.1832 15.5227 27.0431 16.2955 26.7628 16.9773C26.4901 17.6591 26.0999 18.2652 25.5923 18.7955C25.0848 19.3258 24.4825 19.7992 23.7855 20.2159C23.1719 20.5947 22.6681 20.9886 22.2741 21.3977C21.8878 21.8068 21.5999 22.2879 21.4105 22.8409C21.2287 23.3864 21.134 24.0606 21.1264 24.8636V25.1591H17.3423ZM19.3196 32.25C18.6378 32.25 18.0507 32.0076 17.5582 31.5227C17.0658 31.0379 16.8196 30.447 16.8196 29.75C16.8196 29.0682 17.0658 28.4848 17.5582 28C18.0507 27.5152 18.6378 27.2727 19.3196 27.2727C19.9938 27.2727 20.5772 27.5152 21.0696 28C21.5696 28.4848 21.8196 29.0682 21.8196 29.75C21.8196 30.2121 21.7022 30.6326 21.4673 31.0114C21.2401 31.3902 20.937 31.6932 20.5582 31.9205C20.187 32.1402 19.7741 32.25 19.3196 32.25Z" fill="white"/>
</svg>
